<svg width="6" height="8" viewBox="0 0 6 8" fill="none" xmlns="http://www.w3.org/2000/svg">
<path id="Vector" d="M2.96001 0.389999C2.96001 0.389999 0.499985 3.14 0.499985 4.75C0.50263 5.4007 0.762992 6.02384 1.22404 6.48302C1.6851 6.9422 2.3093 7.2 2.96001 7.2C3.60979 7.2 4.23296 6.94187 4.69243 6.48241C5.15189 6.02294 5.41002 5.39978 5.41002 4.75C5.41002 3.12 2.96001 0.389999 2.96001 0.389999ZM3.45 6.39C3.79124 6.22287 4.07782 5.96198 4.27617 5.63789C4.47452 5.3138 4.57643 4.93991 4.56999 4.56C4.46454 3.78067 4.17678 3.03721 3.73003 2.39C4.27313 3.0856 4.64015 3.90209 4.79997 4.77C4.80782 5.15098 4.6742 5.52132 4.42485 5.80946C4.1755 6.0976 3.82815 6.28307 3.45 6.33V6.39Z" fill="#4C4846"/>
</svg>
