<svg width="21" height="20" viewBox="0 0 21 20" fill="none" xmlns="http://www.w3.org/2000/svg">
<g id="Group 1">
<path id="Vector" d="M10.42 19.3C15.6557 19.3 19.9 15.0557 19.9 9.82C19.9 4.58434 15.6557 0.339996 10.42 0.339996C5.18433 0.339996 0.939995 4.58434 0.939995 9.82C0.939995 15.0557 5.18433 19.3 10.42 19.3Z" fill="white"/>
<path id="Vector_2" d="M10.4199 19.39C9.15723 19.3929 7.90645 19.1461 6.73946 18.6639C5.57246 18.1816 4.51228 17.4734 3.61995 16.58C2.72654 15.6877 2.01833 14.6275 1.53609 13.4605C1.05384 12.2935 0.807077 11.0427 0.809952 9.78C0.806749 8.51873 1.05342 7.26932 1.53572 6.1039C2.01802 4.93849 2.72639 3.88016 3.61995 2.99001C4.51046 2.09345 5.57006 1.38253 6.73732 0.898457C7.90458 0.414387 9.15629 0.166786 10.4199 0.170003C11.6822 0.165894 12.9328 0.413122 14.0985 0.897282C15.2643 1.38144 16.322 2.09285 17.21 2.99001C18.1067 3.87833 18.8178 4.9361 19.3019 6.10178C19.786 7.26747 20.0335 8.51779 20.03 9.78C20.0332 11.0437 19.7856 12.2954 19.3015 13.4627C18.8175 14.6299 18.1065 15.6895 17.21 16.58C16.3202 17.474 15.2619 18.1827 14.0964 18.665C12.9309 19.1473 11.6813 19.3938 10.4199 19.39ZM10.4199 0.390004C9.19181 0.387649 7.97541 0.628568 6.8409 1.09885C5.70638 1.56913 4.67624 2.25947 3.80995 3.13001C2.93897 3.99596 2.24835 5.02603 1.77803 6.16062C1.30772 7.29521 1.06706 8.51181 1.06996 9.74001C1.06539 10.9685 1.3053 12.1855 1.77571 13.3203C2.24612 14.4552 2.93762 15.4851 3.80995 16.35C4.6749 17.2223 5.70479 17.9138 6.83962 18.3843C7.97444 18.8547 9.19149 19.0946 10.4199 19.09C11.6483 19.094 12.8653 18.8539 14 18.3835C15.1348 17.9131 16.1647 17.2219 17.03 16.35C17.9005 15.4837 18.5908 14.4536 19.0611 13.3191C19.5314 12.1846 19.7723 10.9681 19.77 9.74001C19.7707 8.51213 19.529 7.29619 19.0588 6.1619C18.5886 5.02761 17.8992 3.99729 17.03 3.13001C15.2665 1.40194 12.8888 0.44511 10.4199 0.470006V0.390004Z" fill="#009640"/>
<path id="Vector_3" d="M8.35002 16.89L8.11998 16.64C7.34487 16.3801 6.62082 15.9876 5.98003 15.48L6.10002 15.77C6.11492 15.8414 6.14954 15.9073 6.2 15.96L6.27 16.02L6.41002 16.12C6.48846 16.1582 6.55183 16.2216 6.59001 16.3C6.61531 16.3677 6.61531 16.4423 6.59001 16.51H6.28001C6.23717 16.5192 6.19286 16.5192 6.15001 16.51C6.1124 16.476 6.08766 16.4301 6.08 16.38C6.07111 16.3371 6.07111 16.2929 6.08 16.25H5.80998C5.80998 16.37 5.85999 16.46 5.87999 16.54C5.90355 16.5959 5.93752 16.6468 5.98003 16.69C6.02627 16.7481 6.08417 16.7958 6.15001 16.83H6.23003C6.29884 16.8482 6.37117 16.8482 6.43999 16.83C6.57188 16.8253 6.70279 16.8052 6.83 16.77C6.90197 16.75 6.97801 16.75 7.04997 16.77C7.09808 16.8006 7.14182 16.8376 7.17998 16.88C7.21376 16.9129 7.23797 16.9544 7.24998 17L7.02 17.52L7.14 17.68L7.27 17.83L7.73003 16.62L8.00999 16.72L8.35002 16.89ZM7.35002 16.89C7.28619 16.7634 7.18945 16.6563 7.06999 16.58C6.98942 16.5517 6.90526 16.5349 6.81999 16.53C6.82993 16.508 6.83507 16.4841 6.83507 16.46C6.83507 16.4359 6.82993 16.412 6.81999 16.39C6.80408 16.3289 6.77694 16.2712 6.73997 16.22L6.91997 16.32L7.10002 16.41L7.47002 16.58L7.35002 16.89Z" fill="#009640"/>
<path id="Vector_4" d="M10.16 17.18L10.01 17.09L9.86998 16.99C9.18386 16.9389 8.50949 16.7838 7.86998 16.53L8.09001 16.8C8.49744 16.9352 8.91561 17.0355 9.34001 17.1L7.96001 17.16C8.04001 17.27 8.12001 17.39 8.21001 17.5C8.40307 17.5555 8.58798 17.6362 8.75999 17.74C8.89066 17.8018 9.00917 17.8864 9.10997 17.99L9.33 18.26L9.50999 18.37L9.65001 17.1H9.92998H10.21L10.16 17.18ZM8.72002 18.1C8.79002 18.1 8.80997 18.04 8.79997 17.99C8.78242 17.9473 8.75065 17.9119 8.71001 17.89C8.65604 17.8514 8.59481 17.8242 8.53001 17.81C8.46486 17.7899 8.39516 17.7899 8.33 17.81C8.3086 17.8117 8.28802 17.819 8.27043 17.8313C8.25284 17.8436 8.23891 17.8605 8.23003 17.88C8.2262 17.9052 8.2298 17.9309 8.24046 17.954C8.25113 17.9771 8.26839 17.9966 8.29002 18.01C8.34643 18.0608 8.4155 18.0954 8.48997 18.11H8.61998C8.64706 18.1131 8.67452 18.1097 8.7 18.1H8.72002ZM9.16997 17.92L9.04002 17.79L8.89 17.67L8.7 17.55L8.48997 17.43C8.73997 17.43 8.98998 17.43 9.24998 17.37L9.16997 17.92Z" fill="#009640"/>
<path id="Vector_5" d="M12.58 16.87L12.25 16.78C11.366 17.0097 10.4466 17.0708 9.54002 16.96L9.81999 17.16C10.2459 17.195 10.6741 17.195 11.1 17.16C10.65 17.28 10.24 17.41 9.84001 17.55C9.95185 17.6399 10.0687 17.7234 10.19 17.8C10.3859 17.8212 10.5799 17.858 10.77 17.91C10.8663 17.9387 10.9599 17.9755 11.05 18.02C11.1181 18.0519 11.1819 18.0922 11.24 18.14C11.2844 18.179 11.3247 18.2226 11.36 18.27L11.55 18.34L11.42 17.34C11.5645 17.3044 11.7155 17.3044 11.86 17.34C11.97 17.34 12.04 17.43 12.05 17.49C12.06 17.55 12.05 17.49 12.05 17.55C12.05 17.61 12.17 17.55 12.16 17.49C12.0717 17.4652 11.9783 17.4652 11.89 17.49C11.8402 17.4833 11.7897 17.4833 11.74 17.49C11.65 17.55 11.61 17.6 11.61 17.66C11.61 17.72 11.61 17.74 11.74 17.76H11.86H11.99C12.0486 17.7507 12.1057 17.7339 12.16 17.71L12.29 17.61C12.3175 17.5854 12.3376 17.5537 12.3482 17.5184C12.3588 17.4832 12.3594 17.4456 12.35 17.41C12.3554 17.3769 12.3554 17.3431 12.35 17.31C12.314 17.2627 12.27 17.2221 12.22 17.19L12.01 17.1C11.9236 17.0911 11.8364 17.0911 11.75 17.1C11.6603 17.09 11.5697 17.09 11.48 17.1C11.8516 17.0492 12.2192 16.9724 12.58 16.87ZM11.13 17.43L11.18 17.95C10.9602 17.8184 10.7204 17.7238 10.47 17.67L10.69 17.58L10.88 17.51L11.13 17.43Z" fill="#009640"/>
<path id="Vector_6" d="M12.25 16.78H12.07H11.96H11.83L12.16 16.88H12.23C12.3337 16.8442 12.4463 16.8442 12.55 16.88C12.5717 16.8885 12.5912 16.902 12.6069 16.9193C12.6225 16.9367 12.6338 16.9575 12.64 16.98L12.91 17.87L13.29 17.93L12.85 16.68L13.13 16.57L13.41 16.46H13.07L12.78 16.57H12.72C12.6819 16.538 12.6482 16.501 12.62 16.46H12.45C12.4871 16.5803 12.5339 16.6973 12.59 16.81C12.4839 16.7596 12.3632 16.7489 12.25 16.78Z" fill="#009640"/>
<path id="Vector_7" d="M14.97 15.62H14.62C14.0553 16.0417 13.4321 16.3786 12.77 16.62C12.8823 16.6457 12.9957 16.6657 13.11 16.68C13.5076 16.5203 13.8921 16.3298 14.26 16.11C13.94 16.39 13.61 16.71 13.26 17.05L13.67 17.14L13.96 17.04L14.24 16.97H14.36H14.47C14.5366 16.965 14.6034 16.965 14.67 16.97H14.77L15.02 17.02H15.22L14.51 15.96L14.74 15.79L14.97 15.62ZM14.47 17.24C14.4788 17.2316 14.4858 17.2215 14.4905 17.2103C14.4953 17.1992 14.4977 17.1871 14.4977 17.175C14.4977 17.1629 14.4953 17.1508 14.4905 17.1397C14.4858 17.1285 14.4788 17.1184 14.47 17.11C14.425 17.0922 14.375 17.0922 14.33 17.11C14.2669 17.1126 14.2054 17.1297 14.15 17.16C14.0887 17.1924 14.0343 17.2366 13.99 17.29C13.9727 17.3316 13.9727 17.3784 13.99 17.42C14.0064 17.4384 14.0264 17.4532 14.0487 17.4635C14.0711 17.4738 14.0954 17.4794 14.12 17.48C14.2002 17.4777 14.2789 17.4572 14.35 17.42C14.4044 17.3709 14.4456 17.3091 14.47 17.24ZM14.69 16.81C14.5638 16.795 14.4362 16.795 14.31 16.81H14.09L13.85 16.86L13.98 16.72L14.12 16.59L14.4 16.32L14.69 16.81Z" fill="#009640"/>
<path id="Vector_8" d="M2.12999 9.97C2.12675 10.083 2.14718 10.1954 2.18999 10.3C2.21916 10.3773 2.27159 10.4437 2.34001 10.49C2.36162 10.5132 2.388 10.5315 2.41734 10.5436C2.44669 10.5557 2.47829 10.5613 2.50999 10.56C2.58999 10.56 2.63998 10.49 2.67998 10.38C2.68487 10.3536 2.68487 10.3264 2.67998 10.3C2.67224 10.2303 2.65191 10.1625 2.61998 10.1C2.61998 10 2.61998 9.94999 2.55998 9.92999C2.49998 9.90999 2.55998 9.86 2.55998 9.86C2.55998 9.86 2.63002 9.91999 2.72002 10.04L2.86998 10.26L3.05998 9.99001C3.01833 9.92939 2.97147 9.8725 2.91997 9.81999L2.80998 9.7C2.76014 9.64729 2.69234 9.61518 2.61998 9.61C2.58428 9.61894 2.55083 9.63508 2.52159 9.65744C2.49236 9.6798 2.46798 9.70789 2.45 9.74001C2.42628 9.83522 2.42628 9.93479 2.45 10.03C2.44466 10.0732 2.44466 10.1168 2.45 10.16C2.40375 10.1128 2.36818 10.0563 2.34575 9.99416C2.32332 9.93204 2.31455 9.86582 2.31999 9.8C2.3244 9.72328 2.34484 9.64834 2.37999 9.58C2.41651 9.49854 2.47546 9.42917 2.54997 9.38C2.6039 9.32865 2.67552 9.3 2.74998 9.3L3.41997 9.36L3.64 9.12L2.33 8.98V8.7C2.32445 8.6535 2.32445 8.6065 2.33 8.56V8.42C2.25467 8.4987 2.1845 8.58221 2.11998 8.67C2.11514 8.75993 2.11514 8.85007 2.11998 8.94V9C2.11998 9 2.01997 9 1.98997 9L1.85002 9.2C1.9832 9.20914 2.11681 9.20914 2.24998 9.2H2.41997C2.3708 9.22055 2.32657 9.25121 2.29002 9.28999C2.24756 9.33704 2.21367 9.39121 2.18999 9.45C2.15945 9.52004 2.13924 9.59415 2.12999 9.67C2.12999 9.67 2.12999 9.76 2.12999 9.8V9.97Z" fill="#009640"/>
<path id="Vector_9" d="M2.81999 8.39C2.77787 8.40448 2.73211 8.40448 2.68999 8.39C2.68999 8.39 2.59998 8.39 2.55998 8.28C2.52921 8.19951 2.52921 8.11049 2.55998 8.03C2.58696 7.92441 2.64647 7.82996 2.73003 7.75999C2.76533 7.71966 2.8111 7.6899 2.86229 7.67401C2.91348 7.65812 2.96807 7.65673 3.02 7.67L3.68999 7.87L3.80998 7.77L3.93999 7.67999L2.72002 7.27C2.72002 7.18 2.77999 7.09 2.81999 7L2.91997 6.74001L2.66002 6.92999L2.58 7.16L2.49998 7.23C2.47426 7.24004 2.44569 7.24004 2.41997 7.23C2.37607 7.241 2.33511 7.26147 2.29997 7.28999L2.22002 7.37C2.33929 7.42158 2.46317 7.46177 2.59001 7.49001H2.75999C2.64576 7.5267 2.54491 7.59627 2.47002 7.69L2.39 7.81C2.38133 7.85626 2.38133 7.90373 2.39 7.95V8.11V8.25C2.40123 8.33304 2.42483 8.41394 2.46001 8.49001C2.48781 8.53796 2.52529 8.57961 2.57005 8.61232C2.61481 8.64503 2.66588 8.66807 2.72002 8.67999C2.76611 8.69033 2.81388 8.69033 2.85997 8.67999C2.9071 8.66452 2.95112 8.64083 2.98997 8.61C3.08579 8.51654 3.15485 8.39915 3.18999 8.27C3.20971 8.17771 3.20971 8.0823 3.18999 7.99001C3.19018 7.9553 3.17974 7.92135 3.16008 7.89275C3.14042 7.86414 3.11248 7.84225 3.08 7.83H3.00999C2.96572 7.84553 2.92698 7.8737 2.89854 7.91103C2.87011 7.94835 2.85324 7.99318 2.85002 8.03999C2.85002 8.17999 2.84997 8.26 2.91997 8.27C2.91997 8.27 2.84999 8.33 2.81999 8.39Z" fill="#009640"/>
<path id="Vector_10" d="M3.31999 5.75C3.25513 5.7976 3.19488 5.85117 3.14 5.91C3.09093 5.97276 3.04743 6.03968 3.00999 6.11C2.95204 6.23892 2.9221 6.37866 2.9221 6.52C2.9221 6.66135 2.95204 6.80107 3.00999 6.92999C3.0246 6.95474 3.04524 6.9754 3.06999 6.99001C3.08721 6.99805 3.10598 7.00221 3.12498 7.00221C3.14399 7.00221 3.16276 6.99805 3.17998 6.99001C3.22064 6.96135 3.24918 6.91855 3.25999 6.87C3.25999 6.73 3.30998 6.65999 3.30998 6.64999C3.30998 6.63999 3.36998 6.57999 3.42998 6.64999V6.89L3.65001 6.61C3.65001 6.49 3.65001 6.37 3.65001 6.25C3.65001 6.13 3.65001 6.12 3.65001 6.06V5.87C3.73756 5.84028 3.83242 5.84028 3.91997 5.87L4.45 6.23C4.54704 6.19929 4.64086 6.1591 4.73003 6.11L3.66997 5.41L3.74998 5.28999L3.83 5.17999C3.88104 5.10248 3.93785 5.02895 3.99998 4.96001L3.7 5.06999L3.60002 5.2L3.54002 5.3C3.52607 5.30704 3.51061 5.3107 3.49498 5.3107C3.47935 5.3107 3.46395 5.30704 3.45 5.3L3.28001 5.42L3.66997 5.62H3.79002C3.73094 5.60518 3.66906 5.60518 3.60997 5.62C3.50522 5.64241 3.40642 5.68671 3.31999 5.75ZM3.14 6.52C3.12933 6.46048 3.12933 6.39952 3.14 6.34C3.15665 6.26658 3.1836 6.19589 3.22002 6.13C3.25642 6.05686 3.31162 5.99472 3.37999 5.95C3.37999 6.09 3.37999 6.23 3.37999 6.37C3.33127 6.35397 3.27874 6.35397 3.23003 6.37C3.18877 6.41232 3.15793 6.46369 3.14 6.52Z" fill="#009640"/>
<path id="Vector_11" d="M4.78001 6.08001C4.72139 6.03256 4.65313 5.99844 4.58 5.98C4.49791 5.95967 4.4121 5.95967 4.33 5.98H4.23997L4.10997 6.07L3.96001 6.23C3.91752 6.28978 3.8807 6.35339 3.85002 6.42C3.81148 6.47344 3.77796 6.53035 3.74998 6.59L3.67998 6.72001C3.67998 6.80001 3.62002 6.84001 3.60002 6.85001C3.58002 6.86001 3.42001 7.01 3.34001 6.98C3.28572 7.01014 3.23809 7.05097 3.2 7.10001L3.31999 7.15C3.40411 7.17974 3.49589 7.17974 3.58 7.15C3.66624 7.11236 3.7418 7.05396 3.79997 6.98C3.86482 6.90097 3.91868 6.81351 3.96001 6.72001V6.65V6.60001L4.00999 6.49001L4.08 6.35001C4.12986 6.23398 4.21814 6.13863 4.33 6.08001H4.50999C4.59849 6.10331 4.69152 6.10331 4.78001 6.08001Z" fill="#009640"/>
<path id="Vector_12" d="M4.85997 4.39L4.79997 4.48C4.76218 4.57751 4.71535 4.67125 4.66002 4.75999C4.66002 4.75999 4.57997 4.81999 4.54997 4.75999C4.53558 4.70424 4.53558 4.64575 4.54997 4.59C4.53052 4.52475 4.53052 4.45525 4.54997 4.39H4.68999C4.80184 4.35996 4.90701 4.30907 4.99998 4.24001C5.10595 4.17145 5.20626 4.09453 5.29997 4.00999C5.32525 4.12356 5.37663 4.22969 5.45 4.31999C5.51322 4.37885 5.58383 4.42928 5.66002 4.47L5.89 4.61C5.91938 4.61861 5.95064 4.61861 5.98003 4.61H6.06999V4.56C5.9437 4.52855 5.82703 4.46677 5.73003 4.38C5.70107 4.34158 5.67434 4.3015 5.65001 4.25999C5.6038 4.18893 5.58268 4.10446 5.59001 4.02C5.5705 3.93106 5.5705 3.83894 5.59001 3.75H5.36998H5.18999C5.14732 3.81619 5.10055 3.87965 5.04997 3.94L4.96001 4.03999C4.90303 4.10175 4.83524 4.1526 4.75999 4.19C4.66999 4.26 4.62002 4.28 4.60002 4.27C4.59675 4.23675 4.59675 4.20325 4.60002 4.17C4.91204 3.85944 5.24626 3.57202 5.60002 3.31H5.28001C4.92088 3.58737 4.58631 3.89518 4.28001 4.23C3.9785 4.56315 3.70111 4.91738 3.45 5.28999L3.74998 5.16L3.85002 5.02C3.88423 4.97146 3.92093 4.92473 3.96001 4.88C4.02773 4.7824 4.10116 4.6889 4.17998 4.60001C4.16915 4.66623 4.16915 4.73378 4.17998 4.8C4.19496 4.84136 4.21887 4.87891 4.24998 4.91H4.31999C4.3694 4.92084 4.4206 4.92084 4.47002 4.91L4.65001 4.85001C4.71164 4.81802 4.76605 4.77377 4.80998 4.72C4.87684 4.64044 4.93396 4.55316 4.98003 4.46001C4.98003 4.46001 4.98003 4.55 4.98003 4.64C4.94482 4.70853 4.90114 4.77236 4.85002 4.83C4.78188 4.91091 4.69146 4.97002 4.59001 5C4.50093 5.03512 4.40571 5.05212 4.30998 5.05L4.11998 5C4.04353 4.97919 3.97431 4.93767 3.91997 4.88L3.74998 4.99001C3.88509 5.10322 4.04152 5.18822 4.21001 5.24001C4.31915 5.25947 4.43088 5.25947 4.54002 5.24001C4.74117 5.20306 4.92611 5.10534 5.06999 4.96001C5.1413 4.88195 5.19579 4.79003 5.23003 4.69C5.25531 4.60178 5.25531 4.50822 5.23003 4.42C5.21587 4.38941 5.19536 4.36215 5.16997 4.34C5.12931 4.30121 5.07994 4.27279 5.02599 4.25713C4.97203 4.24146 4.91507 4.23902 4.85997 4.25H4.72002L4.85997 4.39Z" fill="#009640"/>
<path id="Vector_13" d="M5.29002 3.28999C5.24046 3.32282 5.19363 3.3596 5.15001 3.39999L4.98003 3.56H5.14H5.29997C5.33832 3.52714 5.38288 3.50227 5.43095 3.48682C5.47903 3.47136 5.52969 3.46565 5.58 3.47C5.60174 3.47077 5.62298 3.47658 5.64207 3.487C5.66117 3.49741 5.67757 3.51214 5.68999 3.53L6.23997 4.28H6.53001L5.78001 3.17999L6.00999 3.03L6.23997 2.89H5.91997L5.79002 2.98H5.73003H5.66997H5.7C5.65594 2.96445 5.61522 2.9407 5.58 2.91H5.40001C5.47252 3.01263 5.55274 3.10958 5.64 3.2C5.57866 3.18726 5.51525 3.18876 5.45457 3.20436C5.3939 3.21996 5.33761 3.24925 5.29002 3.28999Z" fill="#009640"/>
<path id="Vector_14" d="M8.39 1.95L8.05998 1.86C7.63924 1.98696 7.2282 2.14403 6.83 2.33C6.43905 2.52458 6.06154 2.74507 5.7 2.99001H6.02C6.74997 2.52007 7.54993 2.16902 8.39 1.95ZM8.10002 2.64999C8.08497 2.59759 8.05751 2.54957 8.02 2.50999C7.92951 2.43576 7.81699 2.39357 7.7 2.39C7.6438 2.37967 7.58621 2.37967 7.53001 2.39C7.47033 2.38124 7.4097 2.38124 7.35002 2.39L7.16997 2.44C7.06092 2.49077 6.96512 2.56606 6.89 2.66C6.86703 2.69765 6.8549 2.7409 6.8549 2.785C6.8549 2.82911 6.86703 2.87236 6.89 2.91C6.98 3.01 7.11001 3.01 7.28001 2.91C7.45001 2.81 7.54998 2.72001 7.49998 2.60001C7.48404 2.55629 7.45182 2.52045 7.41002 2.5H7.47002C7.50479 2.48515 7.54219 2.47749 7.58 2.47749C7.61781 2.47749 7.65522 2.48515 7.68999 2.5C7.71914 2.51206 7.74562 2.52976 7.76793 2.55206C7.79024 2.57437 7.80793 2.60086 7.81999 2.63C7.82792 2.66807 7.82564 2.70756 7.81334 2.74445C7.80104 2.78133 7.77917 2.8143 7.74998 2.84C7.71469 2.89353 7.67075 2.94084 7.61998 2.98C7.57795 3.01406 7.53071 3.04108 7.48003 3.06C7.37601 3.10873 7.26436 3.13917 7.15001 3.14999C7.04426 3.16978 6.93575 3.16978 6.83 3.14999C6.72257 3.12152 6.61861 3.08129 6.52 3.03L6.23997 2.89L6.04002 2.96001L6.28001 3.11L6.58 3.27C6.67613 3.31647 6.77661 3.35331 6.87999 3.38H7.10002C7.17602 3.39435 7.25401 3.39435 7.33 3.38C7.41305 3.36877 7.49393 3.34517 7.56999 3.31C7.6254 3.28384 7.6789 3.25376 7.73003 3.22L7.90001 3.09C7.9746 3.04618 8.03383 2.98041 8.06963 2.90166C8.10542 2.8229 8.11606 2.735 8.10002 2.64999Z" fill="#009640"/>
<path id="Vector_15" d="M9.23003 2.09C9.28584 2.12087 9.34685 2.1412 9.41002 2.14999H9.53001H9.7L9.85002 2.03C9.87264 2.01155 9.89134 1.9888 9.90508 1.96304C9.91881 1.93729 9.92726 1.90906 9.92998 1.88C9.92157 1.83016 9.89696 1.78446 9.85997 1.75C9.85997 1.67 9.77997 1.64 9.73997 1.64V1.69H10.11H10.49L10.21 1.52H9.89H9.56999H9.25999H8.93999C8.72999 1.52 8.52999 1.59999 8.31999 1.64999C8.10999 1.69999 7.91001 1.76 7.71001 1.84H7.87999H8.04002C8.50671 1.69937 8.98542 1.60229 9.47002 1.55C9.47002 1.55 9.53997 1.55 9.54997 1.55C9.55997 1.55 9.60997 1.62 9.60997 1.64C9.61716 1.65569 9.6209 1.67274 9.6209 1.69C9.6209 1.70726 9.61716 1.72432 9.60997 1.74001C9.58475 1.77319 9.54981 1.79765 9.50999 1.81C9.41769 1.76516 9.32034 1.73159 9.22002 1.71001C9.10806 1.68501 8.99194 1.68501 8.87999 1.71001C8.79364 1.7254 8.71173 1.75952 8.64 1.81C8.59087 1.85426 8.55896 1.91448 8.54997 1.98C8.54571 2.0115 8.55235 2.04352 8.56871 2.07079C8.58507 2.09805 8.6102 2.11894 8.64 2.13C8.71778 2.15667 8.80221 2.15667 8.87999 2.13C8.94166 2.11812 8.99784 2.08653 9.04002 2.03999C9.04996 2.018 9.0551 1.99414 9.0551 1.97C9.0551 1.94586 9.04996 1.92199 9.04002 1.89999C9.04689 1.88058 9.04689 1.85941 9.04002 1.84L9.23003 2.09Z" fill="#009640"/>
<path id="Vector_16" d="M9.62001 2.18C9.62486 2.20308 9.62486 2.22693 9.62001 2.25001V2.7C9.52465 2.67745 9.42538 2.67745 9.33003 2.7H9.22004L8.95002 2.76H8.8C8.76496 2.75421 8.73264 2.7376 8.70753 2.71249C8.68242 2.68738 8.66584 2.65504 8.66005 2.62C8.64979 2.56716 8.64979 2.51285 8.66005 2.46001H8.55C8.54134 2.45352 8.53085 2.45 8.52003 2.45C8.50921 2.45 8.49866 2.45352 8.49 2.46001C8.46083 2.53735 8.46083 2.62266 8.49 2.7C8.51817 2.78893 8.57893 2.86394 8.66005 2.91001C8.72429 2.95474 8.80196 2.97593 8.88002 2.97001C8.96302 2.98047 9.04701 2.98047 9.13002 2.97001C9.19196 2.96134 9.25247 2.94453 9.31001 2.92001H9.48005C9.55407 2.8915 9.63602 2.8915 9.71003 2.92001L9.8 3.02001L9.93 3.09V2.38001C9.93845 2.30024 9.93845 2.21978 9.93 2.14001C9.89914 2.09073 9.8537 2.05229 9.8 2.03001C9.73089 2.01417 9.65914 2.01417 9.59004 2.03001C9.51251 2.0288 9.43619 2.0496 9.37001 2.09H9.28004L9.21003 2.14001L9.07002 2.29C9.05087 2.34162 9.05087 2.39839 9.07002 2.45C9.06561 2.48319 9.06561 2.51682 9.07002 2.55001C9.10141 2.58569 9.1435 2.61024 9.19001 2.62H9.36C9.42481 2.61172 9.48667 2.5877 9.54005 2.55001C9.5613 2.53556 9.57871 2.5162 9.59089 2.49357C9.60308 2.47094 9.60963 2.4457 9.61 2.42001C9.59906 2.38761 9.57803 2.35958 9.55 2.34C9.5039 2.32967 9.45614 2.32967 9.41005 2.34C9.40546 2.3169 9.40546 2.29312 9.41005 2.27001L9.53004 2.18H9.61H9.62001Z" fill="#009640"/>
<path id="Vector_17" d="M11.29 1.74001L11.03 1.54H10.7V1.44001C10.6637 1.36699 10.6126 1.30229 10.55 1.25C10.4861 1.18479 10.4118 1.13071 10.33 1.09C10.2121 1.03712 10.0877 1.00013 9.96003 0.98C9.77118 0.950392 9.57886 0.950392 9.39002 0.98L9.10004 1.03L8.82001 1.14C8.66001 1.22 8.59999 1.3 8.60999 1.37C8.61999 1.44 8.7 1.48 8.81 1.5C8.91952 1.51459 9.0305 1.51459 9.14002 1.5H9.5H9.70002H9.78003C9.78003 1.5 9.72 1.56 9.62 1.62H9.97004C9.9785 1.5872 9.9785 1.5528 9.97004 1.52001C9.96782 1.47932 9.95319 1.44027 9.92817 1.4081C9.90315 1.37593 9.86892 1.35217 9.83002 1.34C9.77691 1.33309 9.7231 1.33309 9.66999 1.34H9.29004H9.13001H8.93C8.83 1.34 8.77002 1.34 8.77002 1.34C8.77002 1.34 8.83005 1.27 8.98005 1.23C9.07998 1.19357 9.18415 1.17006 9.29004 1.16001H9.60004H9.87H9.98005H10.08L10.24 1.24001C10.35 1.32001 10.4 1.38 10.41 1.42V1.48H9.85999L10.17 1.64H10.39V2.76L10.62 2.94001V1.65H10.92L11.29 1.74001Z" fill="#009640"/>
<path id="Vector_18" d="M13.99 2.52L13.81 2.24001C13.1718 1.95297 12.4997 1.74801 11.81 1.63L12.05 1.85001C12.4601 1.93744 12.8643 2.051 13.26 2.19C13.0303 2.17369 12.7997 2.17369 12.57 2.19C12.3874 2.20183 12.2065 2.23198 12.03 2.28C12.11 2.38 12.17 2.48 12.24 2.58H12.32H12.39L12.52 2.64L12.63 2.72L12.73 2.81C12.8484 2.92826 12.9225 3.0836 12.94 3.25C12.9709 3.31488 12.9977 3.38168 13.02 3.45L13.52 2.22L13.77 2.33C13.82 2.44 13.91 2.47 13.99 2.52ZM12.99 2.96001C12.9438 2.87 12.8867 2.78603 12.82 2.71001L12.69 2.59L12.54 2.48C12.7523 2.45017 12.9677 2.45017 13.18 2.48L12.99 2.96001Z" fill="#009640"/>
<path id="Vector_19" d="M13.8 2.24001L13.64 2.16L13.41 2.08C13.48 2.17 13.55 2.25 13.61 2.34H13.67C13.7649 2.37956 13.8404 2.45505 13.88 2.55C13.8916 2.56786 13.8978 2.5887 13.8978 2.61C13.8978 2.6313 13.8916 2.65214 13.88 2.67L13.48 3.50999L13.6 3.77L14.22 2.60001L14.46 2.73L14.58 2.8L14.7 2.87C14.7 2.87 14.7 2.77 14.62 2.73L14.55 2.58L14.28 2.44C14.28 2.44 14.28 2.44 14.28 2.39C14.2751 2.34012 14.2751 2.28988 14.28 2.24001L14.17 2.10001C14.1164 2.21381 14.0697 2.33067 14.03 2.45C13.984 2.35247 13.9013 2.27703 13.8 2.24001Z" fill="#009640"/>
<path id="Vector_20" d="M15.03 3.58C15.0909 3.57229 15.1473 3.54407 15.19 3.5C15.1997 3.46059 15.1997 3.41941 15.19 3.38C15.1942 3.33343 15.1942 3.28657 15.19 3.24C15.1459 3.12667 15.0649 3.03153 14.96 2.97C14.8633 2.90279 14.7478 2.86779 14.63 2.86999C14.5853 2.86601 14.5404 2.87412 14.4999 2.89347C14.4595 2.91283 14.4249 2.94271 14.4 2.97999C14.3781 3.01983 14.3666 3.06455 14.3666 3.11C14.3666 3.15545 14.3781 3.20017 14.4 3.24C14.4473 3.34305 14.5238 3.42997 14.62 3.49C14.671 3.52958 14.7286 3.56003 14.79 3.58H15.03ZM14.68 4.64L14.79 4.50999C14.79 4.32999 14.73 4.17 14.7 4.05C14.67 3.93 14.64 3.84 14.62 3.78C14.6 3.72 14.53 3.59 14.49 3.5L14.37 3.28L14.2 3.56999C14.3563 3.81244 14.4871 4.0705 14.59 4.33999L14.68 4.64ZM15 3.28V3.33999C14.9504 3.34878 14.8996 3.34878 14.85 3.33999C14.7946 3.3309 14.7407 3.31406 14.69 3.28999C14.6833 3.28347 14.678 3.2757 14.6744 3.26712C14.6708 3.25853 14.669 3.24931 14.669 3.24C14.669 3.23069 14.6708 3.22146 14.6744 3.21287C14.678 3.20429 14.6833 3.19652 14.69 3.19C14.7076 3.16718 14.7303 3.14891 14.7565 3.13673C14.7826 3.12455 14.8112 3.11881 14.84 3.11999C14.9146 3.11708 14.9882 3.1381 15.05 3.17999C15.02 3.19999 15.03 3.24 15 3.28Z" fill="#009640"/>
<path id="Vector_21" d="M17.03 5.08V4.91C17.0349 4.85678 17.0349 4.80322 17.03 4.75C16.7881 4.43497 16.5241 4.13755 16.24 3.86C15.9577 3.58251 15.6534 3.32835 15.33 3.10001L15.39 3.25L15.45 3.41C15.8505 3.70415 16.2191 4.0393 16.55 4.41L16.4 4.53999V4.46001C16.3808 4.39018 16.3467 4.32535 16.3 4.27C16.262 4.23544 16.2179 4.2083 16.17 4.19C16.1238 4.18084 16.0762 4.18084 16.03 4.19C16.0118 4.12658 15.9849 4.06599 15.95 4.00999L15.89 3.92L15.81 3.85001C15.767 3.80662 15.7155 3.77266 15.6587 3.75027C15.6019 3.72789 15.541 3.71759 15.48 3.72C15.4336 3.72075 15.3879 3.73192 15.3464 3.75269C15.3048 3.77346 15.2684 3.80329 15.24 3.84C15.2065 3.88144 15.1836 3.93038 15.1731 3.98262C15.1627 4.03486 15.165 4.08887 15.18 4.14C15.2254 4.27162 15.3047 4.38891 15.41 4.48C15.4469 4.52467 15.4952 4.55851 15.5498 4.57788C15.6044 4.59725 15.6632 4.60144 15.72 4.59C15.72 4.59 15.79 4.59 15.8 4.47C15.8137 4.42514 15.8135 4.37716 15.7992 4.33247C15.7849 4.28779 15.7573 4.24854 15.72 4.22C15.6761 4.17768 15.6202 4.14977 15.56 4.14C15.5406 4.12751 15.518 4.12086 15.495 4.12086C15.4719 4.12086 15.4494 4.12751 15.43 4.14V4.19C15.43 4.11 15.43 4.05 15.43 4C15.4546 3.98687 15.4821 3.98 15.51 3.98C15.5379 3.98 15.5654 3.98687 15.59 4C15.6658 4.01057 15.7361 4.0457 15.79 4.10001C15.8544 4.15454 15.8999 4.22804 15.92 4.31C15.9274 4.35301 15.9274 4.39699 15.92 4.44C15.92 4.45592 15.9137 4.47117 15.9025 4.48242C15.8912 4.49367 15.8759 4.5 15.86 4.5L16.02 4.61C16.02 4.54 16.1 4.5 16.13 4.5C16.144 4.49297 16.1593 4.4893 16.175 4.4893C16.1906 4.4893 16.2061 4.49297 16.22 4.5C16.2564 4.5349 16.2809 4.58039 16.29 4.63C16.29 4.69 16.29 4.72 16.29 4.75L15.78 5.2V5.49001L16.78 4.67L16.95 4.88L17.04 4.99001L17.03 5.08Z" fill="#009640"/>
<path id="Vector_22" d="M17 4.75999L16.89 4.62L16.82 4.53L16.73 4.44V4.60001V4.75999C16.797 4.84107 16.8293 4.94526 16.82 5.05C16.8166 5.07087 16.8086 5.09071 16.7965 5.10803C16.7844 5.12535 16.7684 5.13969 16.75 5.14999L16 5.7C16 5.8 16 5.89001 16 5.99001L17.1 5.25C17.206 5.39725 17.3028 5.55088 17.39 5.71001C17.39 5.61001 17.39 5.49 17.39 5.39L17.23 5.13C17.2496 5.08569 17.2766 5.04508 17.31 5.00999V4.83C17.2073 4.90251 17.1104 4.98273 17.02 5.06999C17.0375 5.0196 17.0447 4.96622 17.0413 4.91298C17.0379 4.85974 17.0238 4.80772 17 4.75999Z" fill="#009640"/>
<path id="Vector_23" d="M18.19 7.39C18.19 7.29 18.19 7.17999 18.27 7.06999L18.22 6.94C18.224 6.9001 18.224 6.85989 18.22 6.81999L18.12 6.56C18.12 6.48 18.05 6.4 18.01 6.31V6.19L17.95 6.06999L17.82 5.83L17.69 5.59L17.62 5.47L17.54 5.36L17.4 5.13C17.4 5.24 17.4 5.35001 17.4 5.46001L17.49 5.61L16.9 5.97V6.31999C17.0423 6.32343 17.1818 6.36058 17.3069 6.42838C17.4321 6.49617 17.5394 6.59269 17.62 6.71001C17.5235 6.71795 17.4289 6.74159 17.34 6.78C17.1864 6.8644 17.0423 6.96497 16.91 7.08V7.28L17.17 7.11H17.27C17.4776 7.03989 17.7024 7.03989 17.91 7.11V6.69C17.7914 6.53342 17.6537 6.39232 17.5 6.27L17.24 6.10001L17.63 5.89C17.8654 6.37041 18.053 6.87283 18.19 7.39Z" fill="#009640"/>
<path id="Vector_24" d="M18.45 8.55L18.57 8.25C18.4724 7.74775 18.3285 7.25564 18.14 6.78C18.14 6.89 18.14 6.99001 18.08 7.10001L18.17 7.35001C18.1669 7.39329 18.1669 7.43672 18.17 7.48V7.60001C18.0794 7.52502 17.9725 7.47238 17.8579 7.44632C17.7433 7.42026 17.6241 7.42152 17.51 7.45C17.4015 7.48657 17.3046 7.55115 17.2291 7.63719C17.1536 7.72323 17.1022 7.8277 17.08 7.94C17.0694 7.98269 17.0694 8.02731 17.08 8.06999C17.0762 8.11992 17.0762 8.17007 17.08 8.22C17.0973 8.30362 17.139 8.38021 17.2 8.44C17.2199 8.46494 17.2464 8.48378 17.2764 8.49438C17.3065 8.50499 17.3389 8.50694 17.37 8.5C17.4062 8.49513 17.4394 8.47721 17.4634 8.44958C17.4873 8.42196 17.5003 8.38655 17.5 8.35001C17.5156 8.31152 17.5156 8.26848 17.5 8.23C17.5055 8.19353 17.5055 8.15646 17.5 8.12C17.44 8.02 17.37 8 17.31 8.03L17.25 8.09V8.14C17.25 8.14 17.3 8.21 17.31 8.2C17.31 8.2 17.31 8.19999 17.31 8.14999C17.315 8.0702 17.3433 7.9936 17.3912 7.92964C17.4392 7.86568 17.5048 7.81714 17.58 7.78999H17.76C17.8818 7.77974 18.0031 7.81541 18.1 7.89C18.2198 7.98683 18.3156 8.11003 18.38 8.25C18.4118 8.34784 18.4352 8.4482 18.45 8.55Z" fill="#009640"/>
<path id="Vector_25" d="M18.51 10.58L18.71 10.31V10.12C18.7028 10.0904 18.7028 10.0596 18.71 10.03C18.7609 9.97051 18.8015 9.90291 18.83 9.83H18.54H18.26C18.3602 9.79186 18.4512 9.73292 18.5271 9.65709C18.6029 9.58125 18.6618 9.49023 18.7 9.39C18.7029 9.35673 18.7029 9.32326 18.7 9.28999C18.675 9.14604 18.6008 9.01525 18.49 8.92C18.5145 8.89329 18.5348 8.86293 18.55 8.83V8.72C18.5756 8.62842 18.5756 8.53158 18.55 8.44V8.19L18.49 7.94V8.10001V8.17V8.25C18.49 8.47 18.55 8.54 18.49 8.47C18.5052 8.53242 18.5052 8.59759 18.49 8.66C18.4748 8.69293 18.4545 8.72329 18.43 8.75C18.401 8.67534 18.3528 8.60975 18.29 8.56C18.2674 8.53469 18.2396 8.51448 18.2086 8.50069C18.1776 8.4869 18.1439 8.47984 18.11 8.48C18.0834 8.48586 18.0587 8.498 18.0378 8.5154C18.0169 8.5328 18.0005 8.55495 17.99 8.58C17.9783 8.60887 17.9783 8.64113 17.99 8.67C17.9799 8.70258 17.9799 8.73742 17.99 8.77C17.9755 8.82235 17.9755 8.87764 17.99 8.92999C18.0158 8.97864 18.0496 9.02259 18.09 9.06C18.0282 9.1395 17.9995 9.23983 18.01 9.34C18.0051 9.3698 18.0051 9.40019 18.01 9.42999C18.0057 9.45312 18.0057 9.47687 18.01 9.5C18.0139 9.51816 18.0225 9.53502 18.0347 9.54901C18.047 9.563 18.0625 9.57367 18.08 9.58H18.18C18.18 9.58 18.25 9.58 18.29 9.5C18.3441 9.43529 18.3849 9.36052 18.41 9.28C18.4154 9.29624 18.4154 9.31376 18.41 9.33C18.4138 9.36657 18.4138 9.40343 18.41 9.44C18.4012 9.52423 18.362 9.60239 18.3 9.66C18.23 9.74 18.18 9.77 18.15 9.77H17.37C17.3148 9.85354 17.2547 9.93367 17.19 10.01H18.48C18.5025 10.1991 18.5125 10.3896 18.51 10.58Z" fill="#009640"/>
<path id="Vector_26" d="M10.42 15.87C13.7613 15.87 16.47 13.1613 16.47 9.82C16.47 6.47868 13.7613 3.77 10.42 3.77C7.07867 3.77 4.37 6.47868 4.37 9.82C4.37 13.1613 7.07867 15.87 10.42 15.87Z" fill="#E30613"/>
<path id="Vector_27" d="M7.36997 5.3C7.29997 5.3 7.05001 5.2 6.97001 5.3C6.89001 5.4 6.97001 5.62 6.97001 5.74C6.97001 5.86 6.69998 5.99999 6.62998 6.13999C6.55998 6.27999 6.53999 6.48 6.75999 6.61C6.90771 6.68187 7.05126 6.762 7.18998 6.85C7.33546 6.96448 7.5019 7.0494 7.67997 7.1C7.71436 7.18062 7.7321 7.26735 7.7321 7.35499C7.7321 7.44264 7.71436 7.52938 7.67997 7.61C7.52747 7.59962 7.37448 7.62003 7.23002 7.66999C7.08002 7.73999 7.07 7.88999 6.96 8.00999C6.85 8.12999 6.73 8.14999 6.65 8.31999C6.57162 8.44136 6.53963 8.58695 6.55998 8.72999C6.65998 9.03999 7.18001 9.02999 7.41001 9.17999C7.64001 9.32999 7.53001 9.71999 7.41001 9.97999C7.33189 10.1043 7.29045 10.2482 7.29045 10.395C7.29045 10.5418 7.33189 10.6857 7.41001 10.81C7.56533 11.0652 7.68318 11.3413 7.75999 11.63C7.87999 12.23 7.62001 13.18 8.16001 13.63C8.29001 13.73 8.46999 13.8 8.56999 13.63C8.66999 13.46 8.65999 13.68 8.75999 13.57C8.85999 13.46 8.75996 13.42 8.85996 13.57C8.95996 13.72 8.96998 13.65 9.18998 13.57C9.40998 13.49 9.46999 13.48 9.63999 13.63C9.80999 13.78 9.90001 13.89 10.03 13.63C10.16 13.37 10.09 13.22 10.19 13.06C10.29 12.9 10.41 13.06 10.58 13.06C10.75 13.06 10.58 13.06 10.64 13.06C10.89 13.06 10.8 12.83 10.96 12.74C11.12 12.65 11.28 12.95 11.38 12.68C11.48 12.41 11.28 11.76 11.85 11.91C12.21 12 12.37 12.41 12.44 12.75C12.51 13.09 12.49 13.21 12.54 13.43C12.6115 13.6406 12.6584 13.8587 12.68 14.08C12.6948 14.3414 12.7418 14.6001 12.82 14.85C13.09 14.85 12.93 14.46 13.09 14.35C13.25 14.24 13.57 14.41 13.77 14.35C13.7849 14.1603 13.7849 13.9697 13.77 13.78C13.7093 13.5971 13.6625 13.4099 13.63 13.22C13.63 12.84 13.63 12.44 13.63 12.06C13.63 11.68 13.37 11.38 13.29 11.06C13.2375 10.7207 13.1572 10.3862 13.05 10.06C12.98 9.86999 12.89 9.84 12.69 9.86C12.6351 10.2008 12.5481 10.5356 12.43 10.86C12.26 11.17 12.04 11.48 11.71 11.07C11.5976 10.8919 11.5006 10.7045 11.42 10.51C11.3248 10.3582 11.2634 10.1876 11.24 10.01C11.236 9.83593 11.2927 9.6659 11.4003 9.52906C11.508 9.39222 11.6599 9.29709 11.83 9.25999C12.11 9.16999 12.12 9.08 12.34 8.89C12.56 8.7 12.69 8.73 12.85 8.61C13.01 8.49 12.85 8.21 13.02 7.96C13.19 7.71 13.47 7.77999 13.45 7.56999C13.43 7.35999 13.24 7.35999 13.1 7.27999C12.9736 7.20126 12.835 7.14383 12.69 7.11C12.5563 7.06968 12.4137 7.06968 12.28 7.11C12.1579 7.16814 12.0307 7.215 11.9 7.25C11.59 7.25 11.47 6.75 11.15 7.1C11.06 7.2 11.05 7.31999 10.93 7.39999C10.7968 7.47886 10.6448 7.52033 10.49 7.52C10.33 7.52 10.19 7.58 10.04 7.6C9.87707 7.61145 9.71416 7.57679 9.56999 7.5C9.17999 7.34 9.22001 7.16999 9.22001 6.72999C9.22001 6.46999 9.22001 5.87 8.91001 5.85C8.60001 5.83 8.76999 6.01 8.63999 6.1C8.50999 6.19 8.31999 6.1 8.25999 5.99C8.19999 5.88 8.18997 5.43999 7.86997 5.41999C7.54997 5.39999 7.49001 5.75 7.28001 5.36" fill="#FFCC00"/>
<path id="Vector_28" d="M3.13 11.15L3.48 11.85L4.25 11.96L3.68999 12.5L3.82 13.27L3.13 12.91L2.43999 13.27L2.57 12.5L2.02 11.96L2.79 11.85L3.13 11.15Z" fill="#E30613"/>
<path id="Vector_29" d="M4.43 13.59L4.77 14.29L5.54 14.4L4.98 14.95L5.12 15.71L4.43 15.35L3.74 15.71L3.87 14.95L3.31 14.4L4.08 14.29L4.43 13.59Z" fill="#E30613"/>
<path id="Vector_30" d="M17.86 11.15L17.51 11.85L16.74 11.96L17.3 12.5L17.17 13.27L17.86 12.91L18.55 13.27L18.42 12.5L18.97 11.96L18.2 11.85L17.86 11.15Z" fill="#E30613"/>
<path id="Vector_31" d="M16.56 13.59L16.22 14.29L15.45 14.4L16 14.95L15.87 15.71L16.56 15.35L17.25 15.71L17.12 14.95L17.68 14.4L16.91 14.29L16.56 13.59Z" fill="#E30613"/>
</g>
</svg>
