<svg width="7" height="7" viewBox="0 0 7 7" fill="none" xmlns="http://www.w3.org/2000/svg">
<path id="Vector" d="M6.39 1.67999H4.08V0.869995C4.08 0.769213 4.03994 0.672567 3.96867 0.601303C3.89741 0.530039 3.80078 0.490005 3.7 0.490005C3.59921 0.490005 3.50258 0.530039 3.43132 0.601303C3.36006 0.672567 3.31999 0.769213 3.31999 0.869995V1.67999H1.02C0.942524 1.67999 0.865817 1.69526 0.794235 1.72491C0.722653 1.75456 0.657616 1.79803 0.602829 1.85281C0.548042 1.9076 0.50455 1.97264 0.474899 2.04422C0.445249 2.1158 0.429977 2.19252 0.429977 2.27V5.81C0.429977 5.88748 0.445249 5.9642 0.474899 6.03578C0.50455 6.10736 0.548042 6.1724 0.602829 6.22719C0.657616 6.28197 0.722653 6.32544 0.794235 6.35509C0.865817 6.38474 0.942524 6.39999 1.02 6.39999H6.39C6.54474 6.39737 6.69227 6.33406 6.80077 6.22369C6.90926 6.11333 6.97004 5.96476 6.97002 5.81V2.27C6.97004 2.11524 6.90926 1.96667 6.80077 1.85631C6.69227 1.74594 6.54474 1.68262 6.39 1.67999ZM3.62999 0.899994C3.62999 0.881429 3.63737 0.863622 3.6505 0.850494C3.66363 0.837367 3.68143 0.830002 3.7 0.830002C3.71856 0.830002 3.73637 0.837367 3.7495 0.850494C3.76262 0.863622 3.77 0.881429 3.77 0.899994V1.02C3.77 1.02 3.77 1.06999 3.7 1.06999C3.68478 1.06919 3.6701 1.06406 3.6577 1.05521C3.6453 1.04635 3.63568 1.03414 3.62999 1.02V0.899994ZM3.7 2.44C3.77304 2.43951 3.84433 2.41741 3.90483 2.37648C3.96534 2.33555 4.01239 2.27763 4.04002 2.21001H4.49998C4.52779 2.20903 4.55552 2.21385 4.58134 2.22418C4.60717 2.23451 4.63055 2.25012 4.65001 2.27C4.66964 2.28754 4.68517 2.30915 4.69554 2.33334C4.70591 2.35753 4.71085 2.3837 4.71001 2.41C4.71085 2.43631 4.70591 2.46248 4.69554 2.48666C4.68517 2.51085 4.66964 2.53247 4.65001 2.55C4.63055 2.56989 4.60717 2.58549 4.58134 2.59583C4.55552 2.60616 4.52779 2.61098 4.49998 2.61H2.90001C2.84421 2.60975 2.79057 2.5883 2.74998 2.55C2.7293 2.52939 2.71396 2.50406 2.70525 2.47618C2.69654 2.44831 2.69473 2.41872 2.7 2.39C2.69916 2.3637 2.7041 2.33753 2.71446 2.31334C2.72483 2.28915 2.74037 2.26753 2.75999 2.25C2.80058 2.2117 2.85422 2.19026 2.91002 2.19H3.35997C3.38669 2.2599 3.43298 2.32063 3.49327 2.36496C3.55356 2.40929 3.62531 2.43534 3.7 2.44ZM6.83 5.81C6.83003 5.92763 6.78401 6.0406 6.70177 6.12471C6.61953 6.20882 6.50761 6.25738 6.39 6.25999H1.02C0.900657 6.25999 0.786219 6.2126 0.701828 6.1282C0.617437 6.04381 0.569992 5.92935 0.569992 5.81V2.27C0.572606 2.1524 0.621197 2.04049 0.705307 1.95825C0.789417 1.87601 0.902369 1.82997 1.02 1.83H3.31999V2.06999H2.90001C2.81335 2.0751 2.73191 2.11317 2.67241 2.17639C2.61291 2.23961 2.57985 2.32319 2.58 2.41C2.57985 2.49682 2.61291 2.5804 2.67241 2.64362C2.73191 2.70683 2.81335 2.74489 2.90001 2.75H4.49998C4.58665 2.74489 4.66809 2.70683 4.72758 2.64362C4.78708 2.5804 4.82014 2.49682 4.81999 2.41C4.82014 2.32319 4.78708 2.23961 4.72758 2.17639C4.66809 2.11317 4.58665 2.0751 4.49998 2.06999H4.08V1.83H6.39C6.50669 1.83 6.61858 1.87636 6.7011 1.95888C6.78361 2.04139 6.83 2.15331 6.83 2.27V5.81ZM3.46001 5.72C3.46445 5.72938 3.46678 5.73962 3.46678 5.75C3.46678 5.76038 3.46445 5.77062 3.46001 5.78H1.04002C1.02464 5.77483 1.01091 5.76559 1.00035 5.75327C0.989789 5.74094 0.982786 5.726 0.980026 5.71001C0.979852 5.69305 0.985837 5.6766 0.996872 5.66373C1.00791 5.65085 1.02324 5.64242 1.04002 5.64H3.46001C3.47696 5.63983 3.4934 5.64581 3.50627 5.65685C3.51915 5.66788 3.52759 5.68321 3.53001 5.7L3.46001 5.72ZM3.46001 5.19C3.4636 5.19785 3.46544 5.20637 3.46544 5.215C3.46544 5.22363 3.4636 5.23216 3.46001 5.24001H1.04002C1.02464 5.23483 1.01091 5.22559 1.00035 5.21327C0.989789 5.20095 0.982786 5.18599 0.980026 5.17C0.979852 5.15304 0.985837 5.13661 0.996872 5.12373C1.00791 5.11086 1.02324 5.10243 1.04002 5.10001H3.46001C3.47857 5.10001 3.49638 5.10737 3.50951 5.1205C3.52263 5.13363 3.53001 5.15143 3.53001 5.17L3.46001 5.19ZM6.21001 3.10001H4.7C4.65712 3.09999 4.61467 3.10857 4.57518 3.12527C4.53569 3.14198 4.49999 3.16645 4.47014 3.19724C4.44029 3.22802 4.41689 3.26449 4.40141 3.30447C4.38593 3.34446 4.37865 3.38714 4.37999 3.42999V5.48C4.37865 5.52154 4.3857 5.56293 4.40068 5.6017C4.41566 5.64047 4.43829 5.67583 4.46721 5.70569C4.49613 5.73554 4.53074 5.75928 4.56902 5.77548C4.60729 5.79168 4.64842 5.80002 4.68999 5.8H6.24998C6.29155 5.80002 6.33268 5.79168 6.37096 5.77548C6.40923 5.75928 6.4439 5.73554 6.47282 5.70569C6.50174 5.67583 6.52437 5.64047 6.53935 5.6017C6.55433 5.56293 6.56132 5.52154 6.55998 5.48V3.39C6.55998 3.34666 6.55148 3.30376 6.5349 3.26372C6.51831 3.22368 6.49401 3.18729 6.46336 3.15665C6.43272 3.126 6.39635 3.1017 6.35631 3.08511C6.31627 3.06853 6.27336 3.06 6.23003 3.06L6.21001 3.10001ZM6.40001 5.03C6.27703 4.88631 6.12329 4.77215 5.95018 4.69598C5.77707 4.61981 5.58903 4.58358 5.40001 4.59C5.21099 4.58358 5.02295 4.61981 4.84984 4.69598C4.67673 4.77215 4.52298 4.88631 4.40001 5.03V3.39C4.40243 3.34039 4.42324 3.29347 4.45836 3.25835C4.49348 3.22323 4.5404 3.20242 4.59001 3.2H6.11998C6.17273 3.20075 6.22307 3.22231 6.25999 3.25999C6.29252 3.29544 6.31037 3.3419 6.30998 3.39L6.40001 5.03ZM3.46001 3.39V3.83C3.46164 3.86474 3.45628 3.89946 3.44426 3.9321C3.43224 3.96473 3.41378 3.99463 3.39 4.02C3.33898 4.06191 3.27593 4.08643 3.21001 4.09H1.15001C1.11632 4.09002 1.08299 4.08324 1.05199 4.07005C1.02098 4.05687 0.992939 4.03756 0.969589 4.01328C0.946239 3.98899 0.92802 3.96024 0.916061 3.92874C0.904102 3.89725 0.898662 3.86366 0.900009 3.83V3.39C0.899959 3.32274 0.925963 3.25808 0.97258 3.20959C1.0192 3.16111 1.0828 3.13259 1.15001 3.13H3.21001C3.27794 3.13305 3.34221 3.16162 3.39 3.21001C3.4135 3.23353 3.43184 3.26166 3.44389 3.29265C3.45594 3.32363 3.46144 3.35678 3.46001 3.39ZM3.46001 4.7C3.4636 4.70784 3.46544 4.71638 3.46544 4.72501C3.46544 4.73363 3.4636 4.74216 3.46001 4.75H1.04002C1.02464 4.74483 1.01091 4.73559 1.00035 4.72327C0.989789 4.71094 0.982786 4.69599 0.980026 4.67999C0.979852 4.66304 0.985837 4.6466 0.996872 4.63373C1.00791 4.62085 1.02324 4.61242 1.04002 4.61H3.46001C3.47857 4.61 3.49638 4.61738 3.50951 4.63051C3.52263 4.64364 3.53001 4.66143 3.53001 4.67999L3.46001 4.7ZM5.46001 3.41C5.3534 3.40951 5.249 3.44057 5.16002 3.4993C5.07104 3.55802 5.00147 3.64179 4.96001 3.74001C4.91917 3.83915 4.90879 3.94819 4.93016 4.05327C4.95153 4.15834 5.00368 4.25468 5.08 4.33C5.15447 4.40434 5.24906 4.45529 5.3521 4.47661C5.45514 4.49793 5.56216 4.48868 5.66002 4.45C5.75747 4.40747 5.84046 4.33761 5.89903 4.24887C5.9576 4.16013 5.98918 4.05632 5.98997 3.95C5.99 3.8085 5.93449 3.67264 5.83537 3.57166C5.73626 3.47067 5.60148 3.41262 5.46001 3.41ZM5.46001 4.35001C5.38047 4.34984 5.30277 4.32596 5.23686 4.28143C5.17096 4.2369 5.11984 4.17374 5.09001 4.10001C5.06008 4.02759 5.05266 3.94782 5.06871 3.87112C5.08476 3.79442 5.12351 3.72433 5.17998 3.67C5.23615 3.61636 5.30674 3.58023 5.3831 3.56602C5.45946 3.55182 5.53827 3.56014 5.60997 3.59C5.68184 3.61847 5.74336 3.66819 5.78624 3.73251C5.82912 3.79684 5.85139 3.8727 5.85002 3.95C5.85136 4.00205 5.84223 4.05385 5.82323 4.10233C5.80423 4.1508 5.77571 4.19497 5.73936 4.23225C5.70302 4.26953 5.6596 4.29916 5.61162 4.31938C5.56364 4.3396 5.51207 4.35002 5.46001 4.35001Z" fill="#4C4846"/>
</svg>
