<svg width="6" height="7" viewBox="0 0 6 7" fill="none" xmlns="http://www.w3.org/2000/svg">
<g id="Group 2">
<path id="Vector" d="M0.0900323 1.39C0.0324708 2.23919 0.152078 3.09107 0.44129 3.89157C0.730501 4.69207 1.18299 5.42369 1.77002 6.03999H2.98005L3.12 5.92L2.35004 4.78L1.95002 4.91L0.950018 2.23L1.35004 1.96001L1.20002 0.589996H1.02002L0.0900323 1.39Z" fill="#4C4846"/>
<path id="Vector_2" d="M1.46001 0.600006L1.59 1.92001L1.87 1.84L1.78999 0.640007L1.46001 0.600006Z" fill="#4C4846"/>
<path id="Vector_3" d="M2.56 4.69L3.37 5.82L3.57001 5.61L2.86 4.55L2.56 4.69Z" fill="#4C4846"/>
<path id="Vector_4" d="M3.97002 3.85001H4.17998C4.21376 3.65159 4.20726 3.4484 4.16087 3.25255C4.11449 3.0567 4.0292 2.87219 3.91002 2.71001C3.79357 2.54285 3.64527 2.40027 3.47368 2.29045C3.30209 2.18063 3.11058 2.10572 2.91002 2.06999V2.28999C3.25663 2.35784 3.56241 2.55979 3.76091 2.85193C3.95941 3.14406 4.03458 3.50277 3.97002 3.85001Z" fill="#4C4846"/>
<path id="Vector_5" d="M4.60002 4.17L4.97002 4.23C5.02818 3.88212 5.01659 3.52614 4.9359 3.18279C4.85521 2.83943 4.70701 2.51555 4.49998 2.23C4.30437 1.94558 4.0543 1.7028 3.76421 1.5157C3.47411 1.3286 3.14976 1.2009 2.80998 1.14L2.74998 1.50999C3.04738 1.56055 3.33175 1.66988 3.58641 1.83159C3.84107 1.99329 4.06096 2.20412 4.2332 2.45178C4.40544 2.69944 4.5266 2.97895 4.58958 3.27397C4.65257 3.56899 4.65612 3.87359 4.60002 4.17Z" fill="#4C4846"/>
<path id="Vector_6" d="M5.42998 4.03L5.84001 4.13C5.87742 3.32273 5.64131 2.52644 5.16997 1.87C4.70802 1.19834 4.03071 0.704464 3.24998 0.470001V0.899994C3.9131 1.09941 4.4893 1.51715 4.88506 2.08536C5.28081 2.65357 5.47285 3.33888 5.42998 4.03Z" fill="#4C4846"/>
</g>
</svg>
