<svg width="8" height="7" viewBox="0 0 8 7" fill="none" xmlns="http://www.w3.org/2000/svg">
<path id="Vector" d="M7.07 3.63C7.07 2.80426 6.74267 2.01218 6.15972 1.42735C5.57677 0.842526 4.78575 0.512641 3.96001 0.509995C3.13254 0.509995 2.33895 0.838715 1.75383 1.42383C1.16872 2.00894 0.840016 2.80253 0.840016 3.63C0.839288 4.06011 0.92778 4.48569 1.0999 4.87985C1.27203 5.27402 1.52404 5.62819 1.84002 5.92L1.93999 6L2.10997 6.12C2.16701 6.16919 2.23105 6.20964 2.29998 6.24001L2.51 6.35001C2.74811 6.46112 3.00053 6.53853 3.26 6.58H3.51H4.08001H4.33001C4.58658 6.53987 4.83588 6.46238 5.07 6.35001L5.27001 6.24001H5.32L5.49999 6.12H5.55999L5.71001 6.00999L5.82 5.92C6.18275 5.65255 6.4826 5.30898 6.69854 4.91339C6.91447 4.5178 7.04125 4.07977 7.07 3.63ZM1.07 3.63C1.07 2.86353 1.37451 2.12844 1.91649 1.58646C2.45847 1.04448 3.19354 0.740005 3.96001 0.740005C4.72649 0.740005 5.46155 1.04448 6.00353 1.58646C6.54551 2.12844 6.85003 2.86353 6.85003 3.63C6.84757 4.04062 6.75698 4.44593 6.58446 4.81856C6.41195 5.19119 6.16153 5.52245 5.85003 5.78999C5.82052 5.76422 5.78662 5.7439 5.74999 5.73L4.74999 5.25C4.70857 5.22726 4.67385 5.19406 4.64928 5.1537C4.62471 5.11334 4.61115 5.06724 4.60997 5.02V4.69C4.63883 4.6609 4.66251 4.62707 4.67998 4.59C4.81108 4.4144 4.91248 4.21846 4.98003 4.00999C5.05041 3.97664 5.11007 3.92438 5.15245 3.85904C5.19484 3.7937 5.21825 3.71786 5.22002 3.64V3.24001C5.2187 3.14119 5.18335 3.04584 5.11998 2.97V2.44C5.12801 2.20076 5.04998 1.96658 4.90001 1.78C4.76962 1.65076 4.61254 1.55158 4.43981 1.4894C4.26708 1.42721 4.08286 1.40353 3.90001 1.42C3.71727 1.40487 3.53342 1.42919 3.36089 1.4913C3.18836 1.55341 3.03118 1.65187 2.90001 1.78C2.82168 1.86977 2.76261 1.97467 2.72649 2.0882C2.69037 2.20173 2.67794 2.32147 2.68999 2.44V2.97C2.62253 3.0434 2.58664 3.14037 2.59002 3.24001V3.64C2.58957 3.70115 2.60282 3.76162 2.62877 3.81699C2.65473 3.87236 2.6927 3.92123 2.73998 3.96001C2.80693 4.22114 2.92602 4.46603 3.09002 4.67999V5.00999C3.09014 5.05497 3.07811 5.09914 3.05523 5.13786C3.03235 5.17658 2.99946 5.20841 2.96001 5.23L2.05999 5.72L1.98003 5.78C1.68716 5.50463 1.4549 5.17118 1.29821 4.80098C1.14152 4.43077 1.0638 4.03196 1.07 3.63Z" fill="#4C4846"/>
</svg>
